<?xml version="1.0" encoding="UTF-8" standalone="no"?><!DOCTYPE svg PUBLIC "-//W3C//DTD SVG 1.1//EN" "http://www.w3.org/Graphics/SVG/1.1/DTD/svg11.dtd"><svg width="100%" height="100%" viewBox="0 0 4688 1459" version="1.1" xmlns="http://www.w3.org/2000/svg" xmlns:xlink="http://www.w3.org/1999/xlink" xml:space="preserve" xmlns:serif="http://www.serif.com/" style="fill-rule:evenodd;clip-rule:evenodd;stroke-linejoin:round;stroke-miterlimit:2;"><g id="Group_210"><g><g id="Group_208"><g id="Group_207"><path id="Path_81" d="M640.91,265.904c126.738,0 195.296,38.834 195.296,38.834c1.546,32.491 -10.937,64.129 -34.254,86.808c-47.275,-17.025 -97.096,-25.908 -147.342,-26.267c-132.5,0 -225,69.667 -225,324.375c0,254.704 92.5,319.792 225,319.792c54,0.071 107.646,-8.808 158.75,-26.271c22.888,23.987 35.592,55.946 35.417,89.1c-0.179,33.154 -74.254,38.838 -207.867,38.838c-218.158,-0 -332.379,-143.925 -332.379,-422.605c0,-276.354 113.075,-422.604 332.379,-422.604Z" style="fill:#fff;fill-rule:nonzero;"/><path id="Path_82" d="M1048.62,834.704c9.133,135.904 63.958,179.308 158.75,179.308c47.004,0.58 93.391,-10.816 134.775,-33.108c22.587,21.479 35.741,51.079 36.546,82.238c0.804,31.162 -65.105,47.97 -189.6,47.97c-175.888,0 -258.125,-108.508 -258.125,-315.245c-0,-215.867 101.645,-308.384 253.575,-308.384c140.466,0 226.129,77.671 226.129,229.567c0.608,39.583 -3.609,79.092 -12.554,117.654l-349.496,0Zm135.921,-256.942c-74.255,0 -126.738,49.096 -135.921,175.884l244.412,-0c2.267,-17.042 3.429,-34.213 3.471,-51.404c-0.054,-67.434 -27.5,-124.517 -111.962,-124.517l-0,0.037Z" style="fill:#fff;fill-rule:nonzero;"/><path id="Path_83" d="M1956.5,243.054c18.988,-0.846 37.967,1.871 55.954,8.004l0,840.625c-15.387,5.488 -31.633,8.192 -47.966,7.988c-17.438,-0.054 -34.763,-2.746 -51.392,-7.988l-8.004,-61.683c-33.104,50.346 -85.659,81.113 -171.317,81.113c-130.208,-0 -214.725,-78.821 -214.725,-311.825c0,-233.005 84.517,-311.805 214.725,-311.805c79.946,0 131.354,27.413 164.479,74.234l0,-310.659c18.788,-6.087 38.509,-8.8 58.246,-8.004Zm-182.762,338.092c-91.355,-0 -137.046,47.971 -137.046,218.142c-0,170.175 45.691,218.141 137.046,218.141c79.966,0 124.516,-67.375 124.516,-146.179l0,-147.342c-1.079,-76.529 -45.625,-142.762 -124.446,-142.762l-0.07,-0Z" style="fill:#fff;fill-rule:nonzero;"/><path id="Path_84" d="M2387.06,487.483c165.609,0 218.142,74.234 218.142,221.58l-0,382.62c-13.917,6.421 -29.25,9.171 -44.529,7.988c-15.613,0.412 -31.15,-2.304 -45.696,-7.988l-17.133,-73.108c-29.688,60.542 -92.521,92.538 -179.325,92.538c-107.363,-0 -177.084,-62.83 -177.084,-190.746c0,-124.5 76.529,-179.325 219.309,-179.325c43.491,-0.009 86.958,2.312 130.208,6.946l-0,-42.434c-0,-77.671 -29.692,-122.221 -117.642,-122.221c-52.237,1.05 -103.95,10.7 -153.054,28.559c-11.387,-9.134 -20.4,-20.884 -26.267,-34.254c-6.233,-15.175 -8.583,-31.671 -6.841,-47.984c62.987,-27.779 131.075,-42.141 199.912,-42.171Zm-11.421,331.234c-76.529,-0 -116.512,29.687 -116.512,101.65c-0,74.233 37.692,102.791 99.375,102.791c90.279,0 132.483,-76.525 132.483,-157.62l0,-39.93c-26.216,-2.325 -71.891,-6.891 -115.296,-6.891l-0.05,-0Z" style="fill:#fff;fill-rule:nonzero;"/><path id="Path_85" d="M3020.95,488.542c35.204,-0.425 69.771,9.516 99.375,28.575c-1.925,37.783 -20.346,72.879 -50.35,95.921c-20.288,-15.625 -45.208,-24.063 -70.817,-23.976c-44.529,0 -87.933,34.271 -117.637,86.805l-0,415.746c-18.413,6.02 -37.746,8.724 -57.1,7.987c-19.379,1.087 -38.784,-1.629 -57.121,-7.988l-0,-584.72c18.337,-6.359 37.742,-9.071 57.121,-7.988c19.354,-0.733 38.687,1.971 57.1,7.988l-0,78.82c43.487,-71.962 93.75,-97.17 139.425,-97.17l0.004,-0Z" style="fill:#fff;fill-rule:nonzero;"/></g></g><rect id="Rectangle_1" x="3299.56" y="240.458" width="1079.41" height="505.933" style="fill:#438635;"/><g id="Group_3"><path id="Path_8" d="M3582.39,305.8c3.32,7.933 5.091,16.429 5.212,25.025c0.138,9.8 -1.633,19.537 -5.212,28.663l-148.496,-0l-0,105.341l122.454,0c3.267,8.304 5.025,17.121 5.196,26.042c0.087,9.454 -1.675,18.833 -5.196,27.608l-122.454,0l-0,108.909l153.708,-0c3.271,8.3 5.038,17.12 5.208,26.041c0.092,9.454 -1.679,18.838 -5.208,27.609l-220.404,-0l-0,-375.163l215.192,-0.075Z" style="fill:#fff;fill-rule:nonzero;"/><path id="Path_9" d="M3789.5,305.8c94.829,0 154.225,52.637 154.225,187.6c0,134.967 -59.396,187.563 -154.225,187.563l-122.454,-0l-0,-375.163l122.454,0Zm-4.692,319.942c50.525,-0 87.525,-22.396 87.525,-132.342c0,-110.479 -36.962,-132.342 -87.525,-132.342l-51.062,0l-0,264.684l51.062,-0Z" style="fill:#fff;fill-rule:nonzero;"/><path id="Path_10" d="M4146.15,305.8c13.704,-0.296 27.383,1.283 40.658,4.696l124.525,365.775c-11.804,3.604 -24.133,5.192 -36.462,4.692c-10.979,0.6 -21.971,-0.996 -32.325,-4.692l-28.125,-83.367l-142.304,0l-28.13,83.367c-10.404,3.458 -21.341,5.05 -32.304,4.692c-10.446,0.35 -20.866,-1.242 -30.733,-4.692l124.525,-365.775c13.321,-3.196 26.979,-4.771 40.675,-4.696Zm-3.696,69.821c-4.092,19.562 -9.308,38.867 -15.617,57.829l-36.479,105.767l105.763,-0l-35.425,-105.767c-6.467,-18.958 -11.859,-38.262 -16.154,-57.829l-2.088,-0Z" style="fill:#fff;fill-rule:nonzero;"/></g></g></g></svg>